# xmcd CD database file
#
# Track frame offsets:
#	150
#	11808
#	32700
#	47868
#	60534
#	91394
#	105259
#	132815
#	144906
#	169541
#
# Disc length: 2589 seconds
#
# Revision: 0
# Processed by: cddbd v1.5.2PL0 Copyright (c) Steve Scherf et al.
# Submitted via: CDex 1.70beta3
#
DISCID=780a1b0a
DTITLE=笠井紀美子 - ジャスト・フレンズ
DYEAR=2012
DGENRE=Jazz
TTITLE0=ゼア・ウィル・ネヴァー・ビー・アナザー・ユー
TTITLE1=サニー
TTITLE2=君にそっくり
TTITLE3=ジャスト・イン・タイム
TTITLE4=ワイルド・イズ・ザ・ウインド
TTITLE5=恋はフェニックス
TTITLE6=ビウィッチト
TTITLE7=ゲット・アウト・オブ・タウン
TTITLE8=グッド・ライフ
TTITLE9=ジャスト・フレンズ
EXTD=YEAR: 2012
EXTT0=
EXTT1=
EXTT2=
EXTT3=
EXTT4=
EXTT5=
EXTT6=
EXTT7=
EXTT8=
EXTT9=
PLAYORDER=
